<svg width="32" height="32" viewBox="0 0 32 32" fill="none" xmlns="http://www.w3.org/2000/svg">
  <!-- Chef's hat outline -->
  <path d="M16 28C16 28 8 28 8 24C8 22 8 20 8 18C5.5 18 3 16 3 13C3 9 6 6 10 6C10.5 4 12.5 2 16 2C19.5 2 21.5 4 22 6C26 6 29 9 29 13C29 16 26.5 18 24 18C24 20 24 22 24 24C24 28 16 28 16 28Z" fill="#1976d2" stroke="#1565c0" stroke-width="1.5"/>
  
  <!-- Inner details - pleats -->
  <path d="M12 10V14M16 10V14M20 10V14" stroke="#ffffff" stroke-width="1" stroke-linecap="round" opacity="0.8"/>
  
  <!-- Bottom band -->
  <rect x="8" y="18" width="16" height="3" fill="#1565c0" opacity="0.3"/>
</svg> 